<svg xmlns="http://www.w3.org/2000/svg" xmlns:xlink="http://www.w3.org/1999/xlink" contentStyleType="text/css" data-diagram-type="DESCRIPTION" height="250px" preserveAspectRatio="none" style="width:606px;height:250px;background:#FFFFFF;" version="1.1" viewBox="0 0 606 250" width="606px" zoomAndPan="magnify"><?plantuml 1.2026.5?><defs/><g><g class="title" data-source-line="18"><text fill="#000000" font-family="sans-serif" font-size="14" font-weight="700" lengthAdjust="spacing" textLength="227.8631" x="185.8534" y="23.5352">Gateway Platform &#8212; &#51064;&#54532;&#46972; &#44396;&#49457;&#46020;</text></g><!--cluster WEB Tier--><g class="cluster" data-qualified-name="WEB Tier" data-source-line="20" id="ent0001"><path d="M412.07,43.4883 L476.3434,43.4883 A3.75,3.75 0 0 1 478.8434,45.9883 L485.8434,65.9766 L487.07,65.9766 A2.5,2.5 0 0 1 489.57,68.4766 L489.57,128.4783 A2.5,2.5 0 0 1 487.07,130.9783 L412.07,130.9783 A2.5,2.5 0 0 1 409.57,128.4783 L409.57,45.9883 A2.5,2.5 0 0 1 412.07,43.4883" fill="none" style="stroke:#94A3B8;stroke-width:1.5;"/><line style="stroke:#94A3B8;stroke-width:1.5;" x1="409.57" x2="485.8434" y1="65.9766" y2="65.9766"/><text fill="#475569" font-family="sans-serif" font-size="14" font-weight="700" lengthAdjust="spacing" textLength="63.2734" x="413.57" y="59.0234">WEB Tier</text></g><!--cluster APP Tier--><g class="cluster" data-qualified-name="APP Tier" data-source-line="23" id="ent0003"><path d="M516.07,43.4883 L577.944,43.4883 A3.75,3.75 0 0 1 580.444,45.9883 L587.444,65.9766 L589.07,65.9766 A2.5,2.5 0 0 1 591.57,68.4766 L591.57,128.4783 A2.5,2.5 0 0 1 589.07,130.9783 L516.07,130.9783 A2.5,2.5 0 0 1 513.57,128.4783 L513.57,45.9883 A2.5,2.5 0 0 1 516.07,43.4883" fill="none" style="stroke:#94A3B8;stroke-width:1.5;"/><line style="stroke:#94A3B8;stroke-width:1.5;" x1="513.57" x2="587.444" y1="65.9766" y2="65.9766"/><text fill="#475569" font-family="sans-serif" font-size="14" font-weight="700" lengthAdjust="spacing" textLength="60.874" x="517.57" y="59.0234">APP Tier</text></g><!--entity web1--><g class="entity" data-qualified-name="WEB Tier.web1" data-source-line="21" id="ent0002"><rect fill="#F1F5F9" height="36.4883" rx="2.5" ry="2.5" style="stroke:#475569;stroke-width:0.5;" width="47.3984" x="425.87" y="78.4883"/><text fill="#1B2635" font-family="sans-serif" font-size="14" lengthAdjust="spacing" textLength="27.3984" x="435.87" y="102.0234">web</text></g><!--entity app1--><g class="entity" data-qualified-name="APP Tier.app1" data-source-line="24" id="ent0004"><rect fill="#F1F5F9" height="36.4883" rx="2.5" ry="2.5" style="stroke:#475569;stroke-width:0.5;" width="45.3545" x="529.89" y="78.4883"/><text fill="#1B2635" font-family="sans-serif" font-size="14" lengthAdjust="spacing" textLength="25.3545" x="539.89" y="102.0234">app</text></g><!--entity client--><g class="entity" data-qualified-name="client" data-source-line="26" id="ent0005"><rect fill="#FDF3E7" height="52.9766" rx="2.5" ry="2.5" style="stroke:#B7791F;stroke-width:0.5;" width="59.5049" x="33.81" y="70.2483"/><text fill="#1B2635" font-family="sans-serif" font-size="14" font-style="italic" lengthAdjust="spacing" textLength="36.292" x="45.4164" y="93.7834">&#171;ext&#187;</text><text fill="#1B2635" font-family="sans-serif" font-size="14" lengthAdjust="spacing" textLength="39.5049" x="43.81" y="110.2717">Client</text></g><!--entity fw_edge--><g class="entity" data-qualified-name="fw_edge" data-source-line="27" id="ent0006"><rect fill="#F8FAFC" height="52.9766" rx="2.5" ry="2.5" style="stroke:#475569;stroke-width:0.5;" width="109.0518" x="128.04" y="70.2483"/><text fill="#1B2635" font-family="sans-serif" font-size="14" font-style="italic" lengthAdjust="spacing" textLength="30.6045" x="167.2636" y="93.7834">&#171;fw&#187;</text><text fill="#1B2635" font-family="sans-serif" font-size="14" lengthAdjust="spacing" textLength="89.0518" x="138.04" y="110.2717">Edge Firewall</text></g><!--entity lb_in--><g class="entity" data-qualified-name="lb_in" data-source-line="28" id="ent0007"><rect fill="#F8FAFC" height="52.9766" rx="2.5" ry="2.5" style="stroke:#475569;stroke-width:0.5;" width="118.2666" x="272.43" y="70.2483"/><text fill="#1B2635" font-family="sans-serif" font-size="14" font-style="italic" lengthAdjust="spacing" textLength="27.5693" x="317.7786" y="93.7834">&#171;l4&#187;</text><text fill="#1B2635" font-family="sans-serif" font-size="14" lengthAdjust="spacing" textLength="98.2666" x="282.43" y="110.2717">Ingress L4/VIP</text></g><!--entity lb_out--><g class="entity" data-qualified-name="lb_out" data-source-line="29" id="ent0008"><rect fill="#F8FAFC" height="52.9766" rx="2.5" ry="2.5" style="stroke:#475569;stroke-width:0.5;" width="113.1328" x="7" y="183.2183"/><text fill="#1B2635" font-family="sans-serif" font-size="14" font-style="italic" lengthAdjust="spacing" textLength="27.5693" x="49.7817" y="206.7534">&#171;l4&#187;</text><text fill="#1B2635" font-family="sans-serif" font-size="14" lengthAdjust="spacing" textLength="93.1328" x="17" y="223.2417">Egress L4/VIP</text></g><!--entity partner--><g class="entity" data-qualified-name="partner" data-source-line="30" id="ent0009"><rect fill="#FDF3E7" height="52.9766" rx="2.5" ry="2.5" style="stroke:#B7791F;stroke-width:0.5;" width="94.5117" x="155.31" y="183.2183"/><text fill="#1B2635" font-family="sans-serif" font-size="14" font-style="italic" lengthAdjust="spacing" textLength="36.292" x="184.4199" y="206.7534">&#171;ext&#187;</text><text fill="#1B2635" font-family="sans-serif" font-size="14" lengthAdjust="spacing" textLength="74.5117" x="165.31" y="223.2417">Partner API</text></g></g></svg>