<svg xmlns="http://www.w3.org/2000/svg" xmlns:xlink="http://www.w3.org/1999/xlink" contentStyleType="text/css" data-diagram-type="DESCRIPTION" height="1141px" preserveAspectRatio="none" style="width:314px;height:1141px;background:#FFFFFF;" version="1.1" viewBox="0 0 314 1141" width="314px" zoomAndPan="magnify"><?plantuml 1.2026.5?><defs/><g><g class="title" data-source-line="52"><text fill="#000000" font-family="sans-serif" font-size="14" font-weight="700" lengthAdjust="spacing" textLength="287.0451" x="10" y="23.5352">Gateway Platform &#8212; &#48169;&#54868;&#48317;&#183;L4 &#53685;&#44284; FLOW</text></g><!--cluster WEB Tier--><g class="cluster" data-qualified-name="WEB Tier" data-source-line="54" id="ent0001"><path d="M116.0193,420.4183 L180.2927,420.4183 A3.75,3.75 0 0 1 182.7927,422.9183 L189.7927,442.9066 L191.0193,442.9066 A2.5,2.5 0 0 1 193.5193,445.4066 L193.5193,505.4083 A2.5,2.5 0 0 1 191.0193,507.9083 L116.0193,507.9083 A2.5,2.5 0 0 1 113.5193,505.4083 L113.5193,422.9183 A2.5,2.5 0 0 1 116.0193,420.4183" fill="none" style="stroke:#94A3B8;stroke-width:1.5;"/><line style="stroke:#94A3B8;stroke-width:1.5;" x1="113.5193" x2="189.7927" y1="442.9066" y2="442.9066"/><text fill="#475569" font-family="sans-serif" font-size="14" font-weight="700" lengthAdjust="spacing" textLength="63.2734" x="117.5193" y="435.9534">WEB Tier</text></g><!--cluster APP Tier--><g class="cluster" data-qualified-name="APP Tier" data-source-line="57" id="ent0003"><path d="M117.0193,556.9083 L178.8933,556.9083 A3.75,3.75 0 0 1 181.3933,559.4083 L188.3933,579.3966 L190.0193,579.3966 A2.5,2.5 0 0 1 192.5193,581.8966 L192.5193,641.8983 A2.5,2.5 0 0 1 190.0193,644.3983 L117.0193,644.3983 A2.5,2.5 0 0 1 114.5193,641.8983 L114.5193,559.4083 A2.5,2.5 0 0 1 117.0193,556.9083" fill="none" style="stroke:#94A3B8;stroke-width:1.5;"/><line style="stroke:#94A3B8;stroke-width:1.5;" x1="114.5193" x2="188.3933" y1="579.3966" y2="579.3966"/><text fill="#475569" font-family="sans-serif" font-size="14" font-weight="700" lengthAdjust="spacing" textLength="60.874" x="118.5193" y="572.4434">APP Tier</text></g><!--entity web1--><g class="entity" data-qualified-name="WEB Tier.web1" data-source-line="55" id="ent0002"><rect fill="#F1F5F9" height="36.4883" rx="2.5" ry="2.5" style="stroke:#475569;stroke-width:0.5;" width="47.3984" x="129.8193" y="455.4183"/><text fill="#1B2635" font-family="sans-serif" font-size="14" lengthAdjust="spacing" textLength="27.3984" x="139.8193" y="478.9534">web</text></g><!--entity app1--><g class="entity" data-qualified-name="APP Tier.app1" data-source-line="58" id="ent0004"><rect fill="#F1F5F9" height="36.4883" rx="2.5" ry="2.5" style="stroke:#475569;stroke-width:0.5;" width="45.3545" x="130.8493" y="591.9083"/><text fill="#1B2635" font-family="sans-serif" font-size="14" lengthAdjust="spacing" textLength="25.3545" x="140.8493" y="615.4434">app</text></g><!--entity client--><g class="entity" data-qualified-name="client" data-source-line="60" id="ent0005"><rect fill="#FDF3E7" height="52.9766" rx="2.5" ry="2.5" style="stroke:#B7791F;stroke-width:0.5;" width="59.5049" x="123.7693" y="44.4883"/><text fill="#1B2635" font-family="sans-serif" font-size="14" font-style="italic" lengthAdjust="spacing" textLength="36.292" x="135.3757" y="68.0234">&#171;ext&#187;</text><text fill="#1B2635" font-family="sans-serif" font-size="14" lengthAdjust="spacing" textLength="39.5049" x="133.7693" y="84.5117">Client</text></g><!--entity fw_edge--><g class="entity" data-qualified-name="fw_edge" data-source-line="61" id="ent0006"><rect fill="#F8FAFC" height="52.9766" rx="2.5" ry="2.5" style="stroke:#475569;stroke-width:0.5;" width="109.0518" x="98.9993" y="174.4683"/><text fill="#1B2635" font-family="sans-serif" font-size="14" font-style="italic" lengthAdjust="spacing" textLength="30.6045" x="138.2229" y="198.0034">&#171;fw&#187;</text><text fill="#1B2635" font-family="sans-serif" font-size="14" lengthAdjust="spacing" textLength="89.0518" x="108.9993" y="214.4917">Edge Firewall</text></g><!--entity lb_in--><g class="entity" data-qualified-name="lb_in" data-source-line="62" id="ent0007"><rect fill="#F8FAFC" height="52.9766" rx="2.5" ry="2.5" style="stroke:#475569;stroke-width:0.5;" width="118.2666" x="94.3893" y="304.4383"/><text fill="#1B2635" font-family="sans-serif" font-size="14" font-style="italic" lengthAdjust="spacing" textLength="27.5693" x="139.7379" y="327.9734">&#171;l4&#187;</text><text fill="#1B2635" font-family="sans-serif" font-size="14" lengthAdjust="spacing" textLength="98.2666" x="104.3893" y="344.4617">Ingress L4/VIP</text></g><!--entity lb_out--><g class="entity" data-qualified-name="lb_out" data-source-line="63" id="ent0008"><rect fill="#F8FAFC" height="52.9766" rx="2.5" ry="2.5" style="stroke:#475569;stroke-width:0.5;" width="113.1328" x="96.9593" y="707.3983"/><text fill="#1B2635" font-family="sans-serif" font-size="14" font-style="italic" lengthAdjust="spacing" textLength="27.5693" x="139.741" y="730.9334">&#171;l4&#187;</text><text fill="#1B2635" font-family="sans-serif" font-size="14" lengthAdjust="spacing" textLength="93.1328" x="106.9593" y="747.4217">Egress L4/VIP</text></g><!--entity partner--><g class="entity" data-qualified-name="partner" data-source-line="64" id="ent0009"><rect fill="#FDF3E7" height="52.9766" rx="2.5" ry="2.5" style="stroke:#B7791F;stroke-width:0.5;" width="94.5117" x="106.2693" y="837.3683"/><text fill="#1B2635" font-family="sans-serif" font-size="14" font-style="italic" lengthAdjust="spacing" textLength="36.292" x="135.3791" y="860.9034">&#171;ext&#187;</text><text fill="#1B2635" font-family="sans-serif" font-size="14" lengthAdjust="spacing" textLength="74.5117" x="116.2693" y="877.3917">Partner API</text></g><!--link client to fw_edge--><g class="link" data-entity-1="ent0005" data-entity-2="ent0006" data-link-type="dependency" data-source-line="67" id="lnk10"><path d="M153.5193,97.8783 C153.5193,120.0783 153.5193,146.8983 153.5193,169.0983" fill="none" id="client-to-fw_edge" style="stroke:#181818;stroke-width:1;"/><polygon fill="#181818" points="153.5193,174.0983,157.5193,165.0983,153.5193,169.0983,149.5193,165.0983,153.5193,174.0983" style="stroke:#181818;stroke-width:1;stroke-linejoin:miter;stroke-miterlimit:10;"/><text fill="#000000" font-family="sans-serif" font-size="13" lengthAdjust="spacing" textLength="8.2202" x="154.5193" y="141.0366">1</text></g><!--link fw_edge to lb_in--><g class="link" data-entity-1="ent0006" data-entity-2="ent0007" data-link-type="dependency" data-source-line="68" id="lnk11"><path d="M153.5193,227.8483 C153.5193,250.0583 153.5193,276.8783 153.5193,299.0683" fill="none" id="fw_edge-to-lb_in" style="stroke:#181818;stroke-width:1;"/><polygon fill="#181818" points="153.5193,304.0683,157.5193,295.0683,153.5193,299.0683,149.5193,295.0683,153.5193,304.0683" style="stroke:#181818;stroke-width:1;stroke-linejoin:miter;stroke-miterlimit:10;"/><text fill="#000000" font-family="sans-serif" font-size="13" lengthAdjust="spacing" textLength="8.2202" x="154.5193" y="271.0066">2</text></g><!--link lb_in to web1--><g class="link" data-entity-1="ent0007" data-entity-2="ent0002" data-link-type="dependency" data-source-line="69" id="lnk12"><path d="M153.5193,357.7383 C153.5193,385.9883 153.5193,425.5183 153.5193,450.0283" fill="none" id="lb_in-to-web1" style="stroke:#181818;stroke-width:1;"/><polygon fill="#181818" points="153.5193,455.0283,157.5193,446.0283,153.5193,450.0283,149.5193,446.0283,153.5193,455.0283" style="stroke:#181818;stroke-width:1;stroke-linejoin:miter;stroke-miterlimit:10;"/><text fill="#000000" font-family="sans-serif" font-size="13" lengthAdjust="spacing" textLength="8.2202" x="154.5193" y="400.9866">3</text></g><!--link web1 to app1--><g class="link" data-entity-1="ent0002" data-entity-2="ent0004" data-link-type="dependency" data-source-line="70" id="lnk13"><path d="M153.5193,492.2483 C153.5193,518.0183 153.5193,560.7883 153.5193,586.5683" fill="none" id="web1-to-app1" style="stroke:#181818;stroke-width:1;"/><polygon fill="#181818" points="153.5193,591.5683,157.5193,582.5683,153.5193,586.5683,149.5193,582.5683,153.5193,591.5683" style="stroke:#181818;stroke-width:1;stroke-linejoin:miter;stroke-miterlimit:10;"/><text fill="#000000" font-family="sans-serif" font-size="13" lengthAdjust="spacing" textLength="8.2202" x="154.5193" y="537.4766">4</text></g><!--link app1 to lb_out--><g class="link" data-entity-1="ent0004" data-entity-2="ent0008" data-link-type="dependency" data-source-line="71" id="lnk14"><path d="M153.5193,628.8483 C153.5193,649.4283 153.5193,678.5583 153.5193,702.0783" fill="none" id="app1-to-lb_out" style="stroke:#181818;stroke-width:1;"/><polygon fill="#181818" points="153.5193,707.0783,157.5193,698.0783,153.5193,702.0783,149.5193,698.0783,153.5193,707.0783" style="stroke:#181818;stroke-width:1;stroke-linejoin:miter;stroke-miterlimit:10;"/><text fill="#000000" font-family="sans-serif" font-size="13" lengthAdjust="spacing" textLength="8.2202" x="154.5193" y="673.9666">5</text></g><!--link lb_out to partner--><g class="link" data-entity-1="ent0008" data-entity-2="ent0009" data-link-type="dependency" data-source-line="72" id="lnk15"><path d="M153.5193,760.7783 C153.5193,782.9883 153.5193,809.8083 153.5193,831.9983" fill="none" id="lb_out-to-partner" style="stroke:#181818;stroke-width:1;"/><polygon fill="#181818" points="153.5193,836.9983,157.5193,827.9983,153.5193,831.9983,149.5193,827.9983,153.5193,836.9983" style="stroke:#181818;stroke-width:1;stroke-linejoin:miter;stroke-miterlimit:10;"/><text fill="#000000" font-family="sans-serif" font-size="13" lengthAdjust="spacing" textLength="8.2202" x="154.5193" y="803.9366">6</text></g><g class="legend" data-source-line="74"><rect fill="none" height="211.8594" rx="7.5" ry="7.5" style="stroke:#000000;stroke-width:1;" width="191.4129" x="57.8161" y="910.3448"/><text fill="#000000" font-family="sans-serif" font-size="14" font-weight="700" lengthAdjust="spacing" textLength="9.2354" x="67.4303" y="930.88">#</text><text fill="#000000" font-family="sans-serif" font-size="14" font-weight="700" lengthAdjust="spacing" textLength="24.22" x="85.8942" y="930.88">&#49444;&#47749;</text><text fill="#000000" font-family="sans-serif" font-size="14" lengthAdjust="spacing" textLength="8.8525" x="67.2458" y="947.3683">1</text><text fill="#000000" font-family="sans-serif" font-size="14" lengthAdjust="spacing" textLength="77.0897" x="85.7096" y="947.3683">&#51064;&#48148;&#50868;&#46300; &#50836;&#52397;</text><text fill="#000000" font-family="sans-serif" font-size="14" lengthAdjust="spacing" textLength="92.2236" x="81.28" y="963.8566">( HTTPS 443 )</text><text fill="#000000" font-family="sans-serif" font-size="14" lengthAdjust="spacing" textLength="8.8525" x="67.2458" y="980.3448">2</text><text fill="#000000" font-family="sans-serif" font-size="14" lengthAdjust="spacing" textLength="126.9548" x="85.7096" y="980.3448">&#48169;&#54868;&#48317; &#53685;&#44284;(&#48372;&#50504; &#54596;&#53552;)</text><text fill="#000000" font-family="sans-serif" font-size="14" lengthAdjust="spacing" textLength="158.5194" x="81.28" y="996.8331">( FW rule &#183; &#51064;&#48148;&#50868;&#46300; &#54728;&#50857; )</text><text fill="#000000" font-family="sans-serif" font-size="14" lengthAdjust="spacing" textLength="8.8525" x="67.2458" y="1013.3214">3</text><text fill="#000000" font-family="sans-serif" font-size="14" lengthAdjust="spacing" textLength="114.6225" x="85.7096" y="1013.3214">L4 &#48516;&#48176;(&#47196;&#46300;&#48184;&#47088;&#49905;)</text><text fill="#000000" font-family="sans-serif" font-size="14" lengthAdjust="spacing" textLength="154.1851" x="81.28" y="1029.8097">( TCP &#183; VIP &#8594; &#48177;&#50644;&#46300; &#54400; )</text><text fill="#000000" font-family="sans-serif" font-size="14" lengthAdjust="spacing" textLength="8.8525" x="67.2458" y="1046.298">4</text><text fill="#000000" font-family="sans-serif" font-size="14" lengthAdjust="spacing" textLength="52.8697" x="85.7096" y="1046.298">&#45236;&#48512; &#54840;&#52636;</text><text fill="#000000" font-family="sans-serif" font-size="14" lengthAdjust="spacing" textLength="79.5566" x="81.28" y="1062.7863">( AJP 9109 )</text><text fill="#000000" font-family="sans-serif" font-size="14" lengthAdjust="spacing" textLength="8.8525" x="67.2458" y="1079.2745">5</text><text fill="#000000" font-family="sans-serif" font-size="14" lengthAdjust="spacing" textLength="89.1997" x="85.7096" y="1079.2745">&#50500;&#50883;&#48148;&#50868;&#46300; &#50836;&#52397;</text><text fill="#000000" font-family="sans-serif" font-size="14" lengthAdjust="spacing" textLength="8.8525" x="67.2458" y="1095.7628">6</text><text fill="#000000" font-family="sans-serif" font-size="14" lengthAdjust="spacing" textLength="44.9671" x="85.7096" y="1095.7628">L4 &#53685;&#44284;</text><text fill="#000000" font-family="sans-serif" font-size="14" lengthAdjust="spacing" textLength="93.2832" x="81.28" y="1112.2511">( egress 443 )</text><line style="stroke:#000000;stroke-width:1;" x1="62.8161" x2="244.229" y1="917.3448" y2="917.3448"/><line style="stroke:#000000;stroke-width:1;" x1="62.8161" x2="244.229" y1="933.8331" y2="933.8331"/><line style="stroke:#000000;stroke-width:1;" x1="62.8161" x2="244.229" y1="966.8097" y2="966.8097"/><line style="stroke:#000000;stroke-width:1;" x1="62.8161" x2="244.229" y1="999.7863" y2="999.7863"/><line style="stroke:#000000;stroke-width:1;" x1="62.8161" x2="244.229" y1="1032.7628" y2="1032.7628"/><line style="stroke:#000000;stroke-width:1;" x1="62.8161" x2="244.229" y1="1065.7394" y2="1065.7394"/><line style="stroke:#000000;stroke-width:1;" x1="62.8161" x2="244.229" y1="1082.2277" y2="1082.2277"/><line style="stroke:#000000;stroke-width:1;" x1="62.8161" x2="244.229" y1="1115.2042" y2="1115.2042"/><line style="stroke:#000000;stroke-width:1;" x1="62.8161" x2="62.8161" y1="917.3448" y2="1115.2042"/><line style="stroke:#000000;stroke-width:1;" x1="81.28" x2="81.28" y1="917.3448" y2="1115.2042"/><line style="stroke:#000000;stroke-width:1;" x1="244.229" x2="244.229" y1="917.3448" y2="1115.2042"/></g></g></svg>