<svg xmlns="http://www.w3.org/2000/svg" xmlns:xlink="http://www.w3.org/1999/xlink" contentStyleType="text/css" data-diagram-type="DESCRIPTION" height="444px" preserveAspectRatio="none" style="width:481px;height:444px;background:#FFFFFF;" version="1.1" viewBox="0 0 481 444" width="481px" zoomAndPan="magnify"><?plantuml 1.2026.5?><defs/><g><g class="title" data-source-line="20"><text fill="#000000" font-family="sans-serif" font-size="14" font-weight="700" lengthAdjust="spacing" textLength="293.6314" x="90.3676" y="23.5352">Microservice Platform &#8212; &#44208;&#51228; &#52376;&#47532; Process</text></g><!--cluster < Internal >--><g class="cluster" data-qualified-name=". Internal ." data-source-line="22" id="ent0001"><path d="M8.5,43.4883 L97.0547,43.4883 A3.75,3.75 0 0 1 99.5547,45.9883 L106.5547,65.9766 L310.5,65.9766 A2.5,2.5 0 0 1 313,68.4766 L313,426.6783 A2.5,2.5 0 0 1 310.5,429.1783 L8.5,429.1783 A2.5,2.5 0 0 1 6,426.6783 L6,45.9883 A2.5,2.5 0 0 1 8.5,43.4883" fill="none" style="stroke:#94A3B8;stroke-width:1.5;"/><line style="stroke:#94A3B8;stroke-width:1.5;" x1="6" x2="106.5547" y1="65.9766" y2="65.9766"/><text fill="#475569" font-family="sans-serif" font-size="14" font-weight="700" lengthAdjust="spacing" textLength="87.5547" x="10" y="59.0234">&lt; Internal &gt;</text></g><!--entity gw--><g class="entity" data-qualified-name=". Internal ..gw" data-source-line="23" id="ent0002"><rect fill="#F1F5F9" height="52.9766" rx="2.5" ry="2.5" style="stroke:#475569;stroke-width:0.5;" width="102.5781" x="89.71" y="78.4883"/><text fill="#1B2635" font-family="sans-serif" font-size="14" lengthAdjust="spacing" textLength="82.5781" x="99.71" y="102.0234">API Gateway</text><text fill="#1B2635" font-family="sans-serif" font-size="14" lengthAdjust="spacing" textLength="39.8398" x="99.71" y="118.5117">:8080</text></g><!--entity order--><g class="entity" data-qualified-name=". Internal ..order" data-source-line="24" id="ent0003"><rect fill="#F1F5F9" height="52.9766" rx="2.5" ry="2.5" style="stroke:#475569;stroke-width:0.5;" width="110.7061" x="21.65" y="223.4683"/><text fill="#1B2635" font-family="sans-serif" font-size="14" lengthAdjust="spacing" textLength="90.7061" x="31.65" y="247.0034">Order Service</text><text fill="#1B2635" font-family="sans-serif" font-size="14" lengthAdjust="spacing" textLength="39.8398" x="31.65" y="263.4917">:8081</text></g><!--entity pay--><g class="entity" data-qualified-name=". Internal ..pay" data-source-line="25" id="ent0004"><rect fill="#F1F5F9" height="52.9766" rx="2.5" ry="2.5" style="stroke:#475569;stroke-width:0.5;" width="129.3408" x="167.33" y="223.4683"/><text fill="#1B2635" font-family="sans-serif" font-size="14" lengthAdjust="spacing" textLength="109.3408" x="177.33" y="247.0034">Payment Service</text><text fill="#1B2635" font-family="sans-serif" font-size="14" lengthAdjust="spacing" textLength="39.8398" x="177.33" y="263.4917">:8082</text></g><!--entity db--><g class="entity" data-qualified-name=". Internal ..db" data-source-line="26" id="ent0005"><rect fill="#F1F5F9" height="36.4883" rx="2.5" ry="2.5" style="stroke:#475569;stroke-width:0.5;" width="81.9131" x="36.04" y="376.6883"/><text fill="#1B2635" font-family="sans-serif" font-size="14" lengthAdjust="spacing" textLength="61.9131" x="46.04" y="400.2234">Order DB</text></g><!--entity psp--><g class="entity" data-qualified-name="psp" data-source-line="28" id="ent0006"><rect fill="#FDF3E7" height="52.9766" rx="2.5" ry="2.5" style="stroke:#B7791F;stroke-width:0.5;" width="138.7266" x="328.64" y="368.4483"/><text fill="#1B2635" font-family="sans-serif" font-size="14" font-style="italic" lengthAdjust="spacing" textLength="36.292" x="379.8573" y="391.9834">&#171;ext&#187;</text><text fill="#1B2635" font-family="sans-serif" font-size="14" lengthAdjust="spacing" textLength="118.7266" x="338.64" y="408.4717">Payment Gateway</text></g><!--link gw to order--><g class="link" data-entity-1="ent0002" data-entity-2="ent0003" data-link-type="dependency" data-source-line="30" id="lnk7"><path d="M124.14,131.9383 C118.59,141.0583 112.66,151.5283 108,161.4683 C98.56,181.5983 91.8024,200.6825 86.1824,218.3925" fill="none" id="gw-to-order" style="stroke:#181818;stroke-width:1;"/><polygon fill="#181818" points="84.67,223.1583,91.2049,215.7897,86.1824,218.3925,83.5796,213.37,84.67,223.1583" style="stroke:#181818;stroke-width:1;stroke-linejoin:miter;stroke-miterlimit:10;"/><text fill="#000000" font-family="sans-serif" font-size="13" lengthAdjust="spacing" textLength="65.5401" x="109" y="175.0366">1. &#51452;&#47928; &#49373;&#49457;</text><text fill="#000000" font-family="sans-serif" font-size="13" lengthAdjust="spacing" textLength="42.6563" x="120.4419" y="190.3472">( http )</text></g><!--link order to db--><g class="link" data-entity-1="ent0003" data-entity-2="ent0005" data-link-type="dependency" data-source-line="31" id="lnk8"><path d="M77,276.8483 C77,305.6583 77,346.4283 77,371.3483" fill="none" id="order-to-db" style="stroke:#181818;stroke-width:1;"/><polygon fill="#181818" points="77,376.3483,81,367.3483,77,371.3483,73,367.3483,77,376.3483" style="stroke:#181818;stroke-width:1;stroke-linejoin:miter;stroke-miterlimit:10;"/><text fill="#000000" font-family="sans-serif" font-size="13" lengthAdjust="spacing" textLength="65.5401" x="78" y="320.0166">2. &#51452;&#47928; &#51200;&#51109;</text><text fill="#000000" font-family="sans-serif" font-size="13" lengthAdjust="spacing" textLength="43.6592" x="88.9404" y="335.3272">( jdbc )</text></g><!--link gw to pay--><g class="link" data-entity-1="ent0002" data-entity-2="ent0004" data-link-type="dependency" data-source-line="32" id="lnk9"><path d="M159.09,131.7483 C165.49,141.0383 172.67,151.6583 179,161.4683 C192.18,181.9183 203.8781,201.2385 214.2881,218.7785" fill="none" id="gw-to-pay" style="stroke:#181818;stroke-width:1;"/><polygon fill="#181818" points="216.84,223.0783,215.6864,213.2972,214.2881,218.7785,208.8068,217.3803,216.84,223.0783" style="stroke:#181818;stroke-width:1;stroke-linejoin:miter;stroke-miterlimit:10;"/><text fill="#000000" font-family="sans-serif" font-size="13" lengthAdjust="spacing" textLength="65.5401" x="199.41" y="175.0366">3. &#44208;&#51228; &#50836;&#52397;</text><text fill="#000000" font-family="sans-serif" font-size="13" lengthAdjust="spacing" textLength="42.6563" x="210.8519" y="190.3472">( http )</text></g><!--link pay to psp--><g class="link" data-entity-1="ent0004" data-entity-2="ent0006" data-link-type="dependency" data-source-line="33" id="lnk10"><path d="M262.06,276.8483 C292.05,302.6783 334.0817,338.8851 364.0917,364.7351" fill="none" id="pay-to-psp" style="stroke:#181818;stroke-width:1;"/><polygon fill="#181818" points="367.88,367.9983,363.6715,359.0938,364.0917,364.7351,358.4504,365.1552,367.88,367.9983" style="stroke:#181818;stroke-width:1;stroke-linejoin:miter;stroke-miterlimit:10;"/><text fill="#000000" font-family="sans-serif" font-size="13" lengthAdjust="spacing" textLength="65.5401" x="330.87" y="320.0166">4. &#52852;&#46300; &#49849;&#51064;</text><text fill="#000000" font-family="sans-serif" font-size="13" lengthAdjust="spacing" textLength="49.2832" x="338.9984" y="335.3272">( https )</text></g></g></svg>