<svg xmlns="http://www.w3.org/2000/svg" xmlns:xlink="http://www.w3.org/1999/xlink" contentStyleType="text/css" data-diagram-type="DESCRIPTION" height="560px" preserveAspectRatio="none" style="width:232px;height:560px;background:#FFFFFF;" version="1.1" viewBox="0 0 232 560" width="232px" zoomAndPan="magnify"><?plantuml 1.2026.5?><defs/><g><g class="title" data-source-line="18"><text fill="#000000" font-family="sans-serif" font-size="14" font-weight="700" lengthAdjust="spacing" textLength="196.9784" x="14.0108" y="23.5352">Web Platform &#8212; &#51064;&#54532;&#46972; &#44396;&#49457;&#46020;</text></g><!--cluster DMZ--><g class="cluster" data-qualified-name="DMZ" data-source-line="20" id="ent0001"><path d="M39.5,122.4683 L73.333,122.4683 A3.75,3.75 0 0 1 75.833,124.9683 L82.833,144.9566 L180.5,144.9566 A2.5,2.5 0 0 1 183,147.4566 L183,223.9483 A2.5,2.5 0 0 1 180.5,226.4483 L39.5,226.4483 A2.5,2.5 0 0 1 37,223.9483 L37,124.9683 A2.5,2.5 0 0 1 39.5,122.4683" fill="none" style="stroke:#94A3B8;stroke-width:1.5;"/><line style="stroke:#94A3B8;stroke-width:1.5;" x1="37" x2="82.833" y1="144.9566" y2="144.9566"/><text fill="#475569" font-family="sans-serif" font-size="14" font-weight="700" lengthAdjust="spacing" textLength="32.833" x="41" y="138.0034">DMZ</text></g><!--cluster App Tier--><g class="cluster" data-qualified-name="App Tier" data-source-line="23" id="ent0003"><path d="M16.5,250.4483 L79.7549,250.4483 A3.75,3.75 0 0 1 82.2549,252.9483 L89.2549,272.9366 L202.5,272.9366 A2.5,2.5 0 0 1 205,275.4366 L205,431.9183 A2.5,2.5 0 0 1 202.5,434.4183 L16.5,434.4183 A2.5,2.5 0 0 1 14,431.9183 L14,252.9483 A2.5,2.5 0 0 1 16.5,250.4483" fill="none" style="stroke:#94A3B8;stroke-width:1.5;"/><line style="stroke:#94A3B8;stroke-width:1.5;" x1="14" x2="89.2549" y1="272.9366" y2="272.9366"/><text fill="#475569" font-family="sans-serif" font-size="14" font-weight="700" lengthAdjust="spacing" textLength="62.2549" x="18" y="265.9834">App Tier</text></g><!--cluster Data Tier--><g class="cluster" data-qualified-name="Data Tier" data-source-line="28" id="ent0007"><path d="M8.5,458.4183 L76.1299,458.4183 A3.75,3.75 0 0 1 78.6299,460.9183 L85.6299,480.9066 L214.5,480.9066 A2.5,2.5 0 0 1 217,483.4066 L217,543.4083 A2.5,2.5 0 0 1 214.5,545.9083 L8.5,545.9083 A2.5,2.5 0 0 1 6,543.4083 L6,460.9183 A2.5,2.5 0 0 1 8.5,458.4183" fill="none" style="stroke:#94A3B8;stroke-width:1.5;"/><line style="stroke:#94A3B8;stroke-width:1.5;" x1="6" x2="85.6299" y1="480.9066" y2="480.9066"/><text fill="#475569" font-family="sans-serif" font-size="14" font-weight="700" lengthAdjust="spacing" textLength="66.6299" x="10" y="473.9534">Data Tier</text></g><!--entity lb--><g class="entity" data-qualified-name="DMZ.lb" data-source-line="21" id="ent0002"><rect fill="#F8FAFC" height="52.9766" rx="2.5" ry="2.5" style="stroke:#94A3B8;stroke-width:0.5;" width="113.9873" x="53.01" y="157.4683"/><text fill="#1B2635" font-family="sans-serif" font-size="14" font-style="italic" lengthAdjust="spacing" textLength="44.6592" x="87.6741" y="181.0034">&#171;gear&#187;</text><text fill="#1B2635" font-family="sans-serif" font-size="14" lengthAdjust="spacing" textLength="93.9873" x="63.01" y="197.4917">Load Balancer</text></g><!--entity web1--><g class="entity" data-qualified-name="App Tier.web1" data-source-line="24" id="ent0004"><rect fill="#F1F5F9" height="36.4883" rx="2.5" ry="2.5" style="stroke:#475569;stroke-width:0.5;" width="61.8701" x="30.06" y="285.4483"/><text fill="#1B2635" font-family="sans-serif" font-size="14" lengthAdjust="spacing" textLength="41.8701" x="40.06" y="308.9834">Web 1</text></g><!--entity web2--><g class="entity" data-qualified-name="App Tier.web2" data-source-line="25" id="ent0005"><rect fill="#F1F5F9" height="36.4883" rx="2.5" ry="2.5" style="stroke:#475569;stroke-width:0.5;" width="61.8701" x="127.06" y="285.4483"/><text fill="#1B2635" font-family="sans-serif" font-size="14" lengthAdjust="spacing" textLength="41.8701" x="137.06" y="308.9834">Web 2</text></g><!--entity app1--><g class="entity" data-qualified-name="App Tier.app1" data-source-line="26" id="ent0006"><rect fill="#F1F5F9" height="36.4883" rx="2.5" ry="2.5" style="stroke:#475569;stroke-width:0.5;" width="93.5547" x="62.22" y="381.9283"/><text fill="#1B2635" font-family="sans-serif" font-size="14" lengthAdjust="spacing" textLength="73.5547" x="72.22" y="405.4634">App Server</text></g><!--entity db--><g class="entity" data-qualified-name="Data Tier.db" data-source-line="29" id="ent0008"><rect fill="#F1F5F9" height="36.4883" rx="2.5" ry="2.5" style="stroke:#475569;stroke-width:0.5;" width="82.665" x="21.67" y="493.4183"/><text fill="#1B2635" font-family="sans-serif" font-size="14" lengthAdjust="spacing" textLength="62.665" x="31.67" y="516.9534">Database</text></g><!--entity cache--><g class="entity" data-qualified-name="Data Tier.cache" data-source-line="30" id="ent0009"><rect fill="#F1F5F9" height="36.4883" rx="2.5" ry="2.5" style="stroke:#475569;stroke-width:0.5;" width="61.0771" x="139.46" y="493.4183"/><text fill="#1B2635" font-family="sans-serif" font-size="14" lengthAdjust="spacing" textLength="41.0771" x="149.46" y="516.9534">Cache</text></g><!--entity client--><g class="entity" data-qualified-name="client" data-source-line="32" id="ent0010"><rect fill="#FDF3E7" height="52.9766" rx="2.5" ry="2.5" style="stroke:#B7791F;stroke-width:0.5;" width="59.5049" x="80.25" y="44.4883"/><text fill="#1B2635" font-family="sans-serif" font-size="14" font-style="italic" lengthAdjust="spacing" textLength="36.292" x="91.8564" y="68.0234">&#171;ext&#187;</text><text fill="#1B2635" font-family="sans-serif" font-size="14" lengthAdjust="spacing" textLength="39.5049" x="90.25" y="84.5117">Client</text></g><!--link client to lb--><g class="link" data-entity-1="ent0010" data-entity-2="ent0002" data-link-type="association" data-source-line="34" id="lnk11"><path d="M110,97.7183 C110,115.5183 110,139.1183 110,156.9683" fill="none" id="client-lb" style="stroke:#181818;stroke-width:1;"/></g><!--link lb to web1--><g class="link" data-entity-1="ent0002" data-entity-2="ent0004" data-link-type="association" data-source-line="35" id="lnk12"><path d="M99.25,210.7883 C89.84,233.3983 76.43,265.6183 68.24,285.2883" fill="none" id="lb-web1" style="stroke:#181818;stroke-width:1;"/></g><!--link lb to web2--><g class="link" data-entity-1="ent0002" data-entity-2="ent0005" data-link-type="association" data-source-line="36" id="lnk13"><path d="M120.53,210.7883 C129.75,233.3983 142.89,265.6183 150.91,285.2883" fill="none" id="lb-web2" style="stroke:#181818;stroke-width:1;"/></g><!--link web1 to app1--><g class="link" data-entity-1="ent0004" data-entity-2="ent0006" data-link-type="association" data-source-line="37" id="lnk14"><path d="M69.8,322.0183 C78.41,338.9583 91.45,364.6183 100.09,381.6383" fill="none" id="web1-app1" style="stroke:#181818;stroke-width:1;"/></g><!--link web2 to app1--><g class="link" data-entity-1="ent0005" data-entity-2="ent0006" data-link-type="association" data-source-line="38" id="lnk15"><path d="M149.01,322.0183 C140.23,338.9583 126.92,364.6183 118.1,381.6383" fill="none" id="web2-app1" style="stroke:#181818;stroke-width:1;"/></g><!--link app1 to db--><g class="link" data-entity-1="ent0006" data-entity-2="ent0008" data-link-type="association" data-source-line="39" id="lnk16"><path d="M101.61,418.7683 C93.03,439.1983 78.95,472.7083 70.37,493.1183" fill="none" id="app1-db" style="stroke:#181818;stroke-width:1;"/></g><!--link app1 to cache--><g class="link" data-entity-1="ent0006" data-entity-2="ent0009" data-link-type="association" data-source-line="40" id="lnk17"><path d="M118.8,418.7683 C130.18,439.1983 148.85,472.7083 160.22,493.1183" fill="none" id="app1-cache" style="stroke:#181818;stroke-width:1;"/></g></g></svg>