<svg xmlns="http://www.w3.org/2000/svg" xmlns:xlink="http://www.w3.org/1999/xlink" contentStyleType="text/css" data-diagram-type="DESCRIPTION" height="803px" preserveAspectRatio="none" style="width:259px;height:803px;background:#FFFFFF;" version="1.1" viewBox="0 0 259 803" width="259px" zoomAndPan="magnify"><?plantuml 1.2026.5?><defs/><g><g class="title" data-source-line="65"><text fill="#000000" font-family="sans-serif" font-size="14" font-weight="700" lengthAdjust="spacing" textLength="217.732" x="17.134" y="23.5352">Web Platform &#8212; &#50836;&#52397; &#52376;&#47532; FLOW</text></g><!--cluster DMZ--><g class="cluster" data-qualified-name="DMZ" data-source-line="67" id="ent0001"><path d="M69.5,160.4683 L103.333,160.4683 A3.75,3.75 0 0 1 105.833,162.9683 L112.833,182.9566 L210.5,182.9566 A2.5,2.5 0 0 1 213,185.4566 L213,261.9483 A2.5,2.5 0 0 1 210.5,264.4483 L69.5,264.4483 A2.5,2.5 0 0 1 67,261.9483 L67,162.9683 A2.5,2.5 0 0 1 69.5,160.4683" fill="none" style="stroke:#94A3B8;stroke-width:1.5;"/><line style="stroke:#94A3B8;stroke-width:1.5;" x1="67" x2="112.833" y1="182.9566" y2="182.9566"/><text fill="#475569" font-family="sans-serif" font-size="14" font-weight="700" lengthAdjust="spacing" textLength="32.833" x="71" y="176.0034">DMZ</text></g><!--cluster App Tier--><g class="cluster" data-qualified-name="App Tier" data-source-line="70" id="ent0003"><path d="M55.5,313.4483 L118.7549,313.4483 A3.75,3.75 0 0 1 121.2549,315.9483 L128.2549,335.9366 L241.5,335.9366 A2.5,2.5 0 0 1 244,338.4366 L244,511.9183 A2.5,2.5 0 0 1 241.5,514.4183 L55.5,514.4183 A2.5,2.5 0 0 1 53,511.9183 L53,315.9483 A2.5,2.5 0 0 1 55.5,313.4483" fill="none" style="stroke:#94A3B8;stroke-width:1.5;"/><line style="stroke:#94A3B8;stroke-width:1.5;" x1="53" x2="128.2549" y1="335.9366" y2="335.9366"/><text fill="#475569" font-family="sans-serif" font-size="14" font-weight="700" lengthAdjust="spacing" textLength="62.2549" x="57" y="328.9834">App Tier</text></g><!--cluster Data Tier--><g class="cluster" data-qualified-name="Data Tier" data-source-line="75" id="ent0007"><path d="M8.5,563.4183 L76.1299,563.4183 A3.75,3.75 0 0 1 78.6299,565.9183 L85.6299,585.9066 L214.5,585.9066 A2.5,2.5 0 0 1 217,588.4066 L217,648.4083 A2.5,2.5 0 0 1 214.5,650.9083 L8.5,650.9083 A2.5,2.5 0 0 1 6,648.4083 L6,565.9183 A2.5,2.5 0 0 1 8.5,563.4183" fill="none" style="stroke:#94A3B8;stroke-width:1.5;"/><line style="stroke:#94A3B8;stroke-width:1.5;" x1="6" x2="85.6299" y1="585.9066" y2="585.9066"/><text fill="#475569" font-family="sans-serif" font-size="14" font-weight="700" lengthAdjust="spacing" textLength="66.6299" x="10" y="578.9534">Data Tier</text></g><!--entity lb--><g class="entity" data-qualified-name="DMZ.lb" data-source-line="68" id="ent0002"><rect fill="#F8FAFC" height="52.9766" rx="2.5" ry="2.5" style="stroke:#94A3B8;stroke-width:0.5;" width="113.9873" x="83.01" y="195.4683"/><text fill="#1B2635" font-family="sans-serif" font-size="14" font-style="italic" lengthAdjust="spacing" textLength="44.6592" x="117.6741" y="219.0034">&#171;gear&#187;</text><text fill="#1B2635" font-family="sans-serif" font-size="14" lengthAdjust="spacing" textLength="93.9873" x="93.01" y="235.4917">Load Balancer</text></g><!--entity web1--><g class="entity" data-qualified-name="App Tier.web1" data-source-line="71" id="ent0004"><rect fill="#F1F5F9" height="36.4883" rx="2.5" ry="2.5" style="stroke:#475569;stroke-width:0.5;" width="61.8701" x="69.06" y="348.4483"/><text fill="#1B2635" font-family="sans-serif" font-size="14" lengthAdjust="spacing" textLength="41.8701" x="79.06" y="371.9834">Web 1</text></g><!--entity web2--><g class="entity" data-qualified-name="App Tier.web2" data-source-line="72" id="ent0005"><rect fill="#F1F5F9" height="36.4883" rx="2.5" ry="2.5" style="stroke:#475569;stroke-width:0.5;" width="61.8701" x="166.06" y="348.4483"/><text fill="#1B2635" font-family="sans-serif" font-size="14" lengthAdjust="spacing" textLength="41.8701" x="176.06" y="371.9834">Web 2</text></g><!--entity app1--><g class="entity" data-qualified-name="App Tier.app1" data-source-line="73" id="ent0006"><rect fill="#F1F5F9" height="36.4883" rx="2.5" ry="2.5" style="stroke:#475569;stroke-width:0.5;" width="93.5547" x="81.22" y="461.9283"/><text fill="#1B2635" font-family="sans-serif" font-size="14" lengthAdjust="spacing" textLength="73.5547" x="91.22" y="485.4634">App Server</text></g><!--entity db--><g class="entity" data-qualified-name="Data Tier.db" data-source-line="76" id="ent0008"><rect fill="#F1F5F9" height="36.4883" rx="2.5" ry="2.5" style="stroke:#475569;stroke-width:0.5;" width="82.665" x="21.67" y="598.4183"/><text fill="#1B2635" font-family="sans-serif" font-size="14" lengthAdjust="spacing" textLength="62.665" x="31.67" y="621.9534">Database</text></g><!--entity cache--><g class="entity" data-qualified-name="Data Tier.cache" data-source-line="77" id="ent0009"><rect fill="#F1F5F9" height="36.4883" rx="2.5" ry="2.5" style="stroke:#475569;stroke-width:0.5;" width="61.0771" x="139.46" y="598.4183"/><text fill="#1B2635" font-family="sans-serif" font-size="14" lengthAdjust="spacing" textLength="41.0771" x="149.46" y="621.9534">Cache</text></g><!--entity client--><g class="entity" data-qualified-name="client" data-source-line="79" id="ent0010"><rect fill="#FDF3E7" height="52.9766" rx="2.5" ry="2.5" style="stroke:#B7791F;stroke-width:0.5;" width="59.5049" x="110.25" y="44.4883"/><text fill="#1B2635" font-family="sans-serif" font-size="14" font-style="italic" lengthAdjust="spacing" textLength="36.292" x="121.8564" y="68.0234">&#171;ext&#187;</text><text fill="#1B2635" font-family="sans-serif" font-size="14" lengthAdjust="spacing" textLength="39.5049" x="120.25" y="84.5117">Client</text></g><!--link lb to web2--><g class="link" data-entity-1="ent0002" data-entity-2="ent0005" data-link-type="association" data-source-line="81" id="lnk11"><path d="M150.32,248.7983 C161.81,277.5583 180.05,323.2483 189.99,348.1283" fill="none" id="lb-web2" style="stroke:#181818;stroke-width:1;"/></g><!--link web2 to app1--><g class="link" data-entity-1="ent0005" data-entity-2="ent0006" data-link-type="association" data-source-line="82" id="lnk12"><path d="M186.22,385.1083 C173.33,405.9283 151.89,440.5783 138.93,461.5083" fill="none" id="web2-app1" style="stroke:#181818;stroke-width:1;"/></g><!--link client to lb--><g class="link" data-entity-1="ent0010" data-entity-2="ent0002" data-link-type="dependency" data-source-line="84" id="lnk13"><path d="M140,97.9283 C140,125.1883 140,162.8083 140,190.0483" fill="none" id="client-to-lb" style="stroke:#181818;stroke-width:1;"/><polygon fill="#181818" points="140,195.0483,144,186.0483,140,190.0483,136,186.0483,140,195.0483" style="stroke:#181818;stroke-width:1;stroke-linejoin:miter;stroke-miterlimit:10;"/><text fill="#000000" font-family="sans-serif" font-size="13" lengthAdjust="spacing" textLength="8.2202" x="141" y="141.0366">1</text></g><!--link lb to web1--><g class="link" data-entity-1="ent0002" data-entity-2="ent0004" data-link-type="dependency" data-source-line="85" id="lnk14"><path d="M132.76,248.7983 C124.7,277.5583 113.2388,318.4336 106.2688,343.3136" fill="none" id="lb-to-web1" style="stroke:#181818;stroke-width:1;"/><polygon fill="#181818" points="104.92,348.1283,111.1995,340.541,106.2688,343.3136,103.4961,338.3829,104.92,348.1283" style="stroke:#181818;stroke-width:1;stroke-linejoin:miter;stroke-miterlimit:10;"/><text fill="#000000" font-family="sans-serif" font-size="13" lengthAdjust="spacing" textLength="8.2202" x="124.58" y="294.0166">2</text></g><!--link web1 to app1--><g class="link" data-entity-1="ent0004" data-entity-2="ent0006" data-link-type="dependency" data-source-line="86" id="lnk15"><path d="M104.38,385.1083 C109.6,405.9283 117.0935,435.7285 122.3435,456.6585" fill="none" id="web1-to-app1" style="stroke:#181818;stroke-width:1;"/><polygon fill="#181818" points="123.56,461.5083,125.2501,451.8055,122.3435,456.6585,117.4905,453.7519,123.56,461.5083" style="stroke:#181818;stroke-width:1;stroke-linejoin:miter;stroke-miterlimit:10;"/><text fill="#000000" font-family="sans-serif" font-size="13" lengthAdjust="spacing" textLength="8.2202" x="116.68" y="428.4966">3</text></g><!--link app1 to db--><g class="link" data-entity-1="ent0006" data-entity-2="ent0008" data-link-type="dependency" data-source-line="87" id="lnk16"><path d="M119.5,498.7583 C107.05,524.5283 86.1358,567.7965 73.6758,593.5765" fill="none" id="app1-to-db" style="stroke:#181818;stroke-width:1;"/><polygon fill="#181818" points="71.5,598.0783,79.0178,591.7157,73.6758,593.5765,71.815,588.2345,71.5,598.0783" style="stroke:#181818;stroke-width:1;stroke-linejoin:miter;stroke-miterlimit:10;"/><text fill="#000000" font-family="sans-serif" font-size="13" lengthAdjust="spacing" textLength="8.2202" x="104.23" y="543.9866">4</text></g><!--link app1 to cache--><g class="link" data-entity-1="ent0006" data-entity-2="ent0009" data-link-type="dependency" data-source-line="88" id="lnk17"><path d="M133.49,498.7583 C141.54,524.5283 154.9697,567.5256 163.0197,593.3056" fill="none" id="app1-to-cache" style="stroke:#181818;stroke-width:1;"/><polygon fill="#181818" points="164.51,598.0783,165.6456,588.2951,163.0197,593.3056,158.0092,590.6796,164.51,598.0783" style="stroke:#181818;stroke-width:1;stroke-linejoin:miter;stroke-miterlimit:10;"/><text fill="#000000" font-family="sans-serif" font-size="13" lengthAdjust="spacing" textLength="8.2202" x="148.74" y="543.9866">5</text></g><g class="legend" data-source-line="90"><rect fill="none" height="112.9297" rx="7.5" ry="7.5" style="stroke:#000000;stroke-width:1;" width="109.2444" x="71.3778" y="671.9083"/><text fill="#000000" font-family="sans-serif" font-size="14" font-weight="700" lengthAdjust="spacing" textLength="9.2354" x="80.9921" y="692.4434">#</text><text fill="#000000" font-family="sans-serif" font-size="14" font-weight="700" lengthAdjust="spacing" textLength="24.22" x="99.4559" y="692.4434">&#49444;&#47749;</text><text fill="#000000" font-family="sans-serif" font-size="14" lengthAdjust="spacing" textLength="8.8525" x="80.8075" y="708.9317">1</text><text fill="#000000" font-family="sans-serif" font-size="14" lengthAdjust="spacing" textLength="71.9212" x="99.2713" y="708.9317">HTTPS &#50836;&#52397;</text><text fill="#000000" font-family="sans-serif" font-size="14" lengthAdjust="spacing" textLength="8.8525" x="80.8075" y="725.42">2</text><text fill="#000000" font-family="sans-serif" font-size="14" lengthAdjust="spacing" textLength="52.8697" x="99.2713" y="725.42">&#48512;&#54616; &#48516;&#49328;</text><text fill="#000000" font-family="sans-serif" font-size="14" lengthAdjust="spacing" textLength="8.8525" x="80.8075" y="741.9083">3</text><text fill="#000000" font-family="sans-serif" font-size="14" lengthAdjust="spacing" textLength="50.0804" x="99.2713" y="741.9083">API &#54840;&#52636;</text><text fill="#000000" font-family="sans-serif" font-size="14" lengthAdjust="spacing" textLength="8.8525" x="80.8075" y="758.3966">4</text><text fill="#000000" font-family="sans-serif" font-size="14" lengthAdjust="spacing" textLength="64.9797" x="99.2713" y="758.3966">&#45936;&#51060;&#53552; &#51312;&#54924;</text><text fill="#000000" font-family="sans-serif" font-size="14" lengthAdjust="spacing" textLength="8.8525" x="80.8075" y="774.8848">5</text><text fill="#000000" font-family="sans-serif" font-size="14" lengthAdjust="spacing" textLength="52.8697" x="99.2713" y="774.8848">&#52880;&#49884; &#44081;&#49888;</text><line style="stroke:#000000;stroke-width:1;" x1="76.3778" x2="175.6222" y1="678.9083" y2="678.9083"/><line style="stroke:#000000;stroke-width:1;" x1="76.3778" x2="175.6222" y1="695.3966" y2="695.3966"/><line style="stroke:#000000;stroke-width:1;" x1="76.3778" x2="175.6222" y1="711.8848" y2="711.8848"/><line style="stroke:#000000;stroke-width:1;" x1="76.3778" x2="175.6222" y1="728.3731" y2="728.3731"/><line style="stroke:#000000;stroke-width:1;" x1="76.3778" x2="175.6222" y1="744.8614" y2="744.8614"/><line style="stroke:#000000;stroke-width:1;" x1="76.3778" x2="175.6222" y1="761.3497" y2="761.3497"/><line style="stroke:#000000;stroke-width:1;" x1="76.3778" x2="175.6222" y1="777.838" y2="777.838"/><line style="stroke:#000000;stroke-width:1;" x1="76.3778" x2="76.3778" y1="678.9083" y2="777.838"/><line style="stroke:#000000;stroke-width:1;" x1="94.8417" x2="94.8417" y1="678.9083" y2="777.838"/><line style="stroke:#000000;stroke-width:1;" x1="175.6222" x2="175.6222" y1="678.9083" y2="777.838"/></g></g></svg>